<svg width="512" height="512" version="1.1" xmlns="http://www.w3.org/2000/svg" desc="Created with imagetracer.js version 1.2.6" ><path fill="rgb(0,0,0)" stroke="rgb(0,0,0)" stroke-width="1" opacity="0" d="M 0 0 L 387 0.5 Q 374.1 3.1 368 12.5 L 363 23.5 L 363 36.5 L 365 41.5 L 361.5 42 L 360.5 41 L 351.5 41 Q 338.6 43.6 332 52.5 L 326 64.5 L 326 77.5 L 330 87.5 L 342 99.5 L 323.5 102 L 312.5 106 Q 298.5 112.5 289 123.5 Q 281 132.5 276 144.5 L 272 159.5 L 272 170 L 270 170 Q 271.1 167.3 268.5 168 Q 262.5 159 251.5 155 L 239.5 154 Q 225.8 156.3 219 165.5 L 213 177.5 L 213 191.5 Q 217.5 205 228 212.5 L 215.5 214 L 197.5 220 Q 185.1 226.6 176 236.5 Q 168 245.5 163 257.5 L 160 266.5 L 159 279.5 L 157.5 283 L 144.5 271 Q 138.2 266.8 127.5 267 L 114.5 271 L 105 279.5 L 100 290.5 Q 101.7 296.8 99 298.5 L 101 307 L 95.5 305 L 87.5 304 Q 86 306.5 80.5 305 L 73.5 308 L 63 317.5 L 58 329.5 L 58 340.5 Q 60.8 351.8 68.5 358 L 74.5 362 L 96.5 370 L 115 382.5 L 0.5 498 L 0 0 Z " /><path fill="rgb(0,0,0)" stroke="rgb(0,0,0)" stroke-width="1" opacity="0" d="M 399.5 0 L 498 0.5 L 440.5 56 L 431 43.5 Q 423.5 30.5 419 14.5 L 411.5 6 L 402.5 1 L 399.5 1 L 399.5 0 Z " /><path fill="rgb(0,0,0)" stroke="rgb(0,0,0)" stroke-width="1" opacity="0" d="M 506.5 0 Q 514.8 -2.8 512 5.5 L 510 4.5 L 507.5 1 L 506.5 0 Z " /><path fill="rgb(0,0,0)" stroke="rgb(0,0,0)" stroke-width="1" opacity="0" d="M 511.5 14 L 512 112.5 L 511 112.5 Q 508.8 100.7 500.5 95 L 468.5 81 L 456 71.5 L 511.5 14 Z " /><path fill="rgb(0,0,0)" stroke="rgb(0,0,0)" stroke-width="1" opacity="0" d="M 391.5 20 Q 398.8 19.8 401 24.5 Q 412.6 62.4 439.5 85 L 462.5 101 L 475.5 107 L 486.5 110 L 491 114.5 L 492 120.5 L 486.5 128 L 479.5 129 Q 456.8 122.2 439.5 110 Q 421.6 97.4 408 80.5 L 391 53.5 L 383 32.5 L 383 27.5 L 388.5 21 L 391.5 20 Z " /><path fill="rgb(0,0,0)" stroke="rgb(0,0,0)" stroke-width="1" opacity="0" d="M 355.5 61 L 361.5 63 L 403 104.5 L 406.5 109 L 449 150.5 L 451 156.5 Q 449.8 162.3 445.5 165 L 438.5 166 L 434.5 164 L 348 77.5 Q 345.3 75.2 346 69.5 L 351.5 62 L 355.5 61 Z " /><path fill="rgb(0,0,0)" stroke="rgb(0,0,0)" stroke-width="1" opacity="0" d="M 340.5 120 L 351.5 121 L 361.5 124 Q 374.1 129.9 382 140.5 L 389 153.5 L 392 170.5 L 391 171.5 L 391 179.5 L 388 189.5 Q 383 201.5 373.5 209 Q 365.5 216 353.5 219 L 335.5 220 Q 312.1 215.9 301 199.5 Q 290.9 187.1 292 163.5 Q 295.8 141.8 310.5 131 L 327.5 122 L 339.5 121 L 340.5 120 Z M 326 174 L 322 176 L 317 184 L 320 192 Q 326 198 336 200 L 349 200 L 360 195 L 366 188 L 365 180 L 358 174 L 352 175 L 345 180 L 340 180 L 330 174 L 326 174 Z " /><path fill="rgb(0,0,0)" stroke="rgb(0,0,0)" stroke-width="1" opacity="0" d="M 511.5 125 L 512 512 L 14 511.5 L 129.5 397 L 142 415.5 L 151 439.5 L 158.5 448 L 171.5 454 L 182.5 454 Q 195.5 451 202 441.5 L 206 434.5 L 208 423.5 L 205 411 L 215.5 413 L 227.5 410 L 239 400.5 L 244 390.5 L 245 379.5 Q 241.7 362.3 229 354.5 L 232.5 353 L 245.5 352 L 254.5 349 Q 270.3 342.3 281 330.5 Q 289 321.5 294 309.5 L 298 296.5 L 298 289.5 L 299.5 284 Q 306.2 293.3 317.5 298 Q 323.8 300.7 334.5 299 Q 345.6 295.6 352 287.5 Q 358.6 280.1 358 265.5 Q 355.2 252.3 346.5 245 Q 344.3 245.8 345 243.5 L 342 242 L 342.5 240 L 352.5 240 Q 379.2 234.7 394 217.5 Q 402.9 207.9 408 194.5 Q 411.9 183.9 412.5 170 L 418.5 177 Q 424.4 183.6 434.5 186 L 447.5 186 Q 458.6 182.6 465 174.5 Q 471.8 166.8 471 151.5 L 470 147.5 L 471.5 148 Q 478.2 150.3 488.5 149 Q 500.7 145.7 507 136.5 L 511.5 125 Z " /><path fill="rgb(0,0,0)" stroke="rgb(0,0,0)" stroke-width="1" opacity="0" d="M 239.5 175 L 248.5 176 L 336 263.5 L 337 272.5 L 332.5 278 L 324.5 279 L 234 189.5 L 233 181.5 L 237.5 176 L 239.5 175 Z " /><path fill="rgb(0,0,0)" stroke="rgb(0,0,0)" stroke-width="1" opacity="0" d="M 219.5 234 Q 237.1 231.9 247.5 237 Q 260.1 242.4 268 252.5 L 277 270.5 Q 279.8 279.2 278 292.5 Q 273.7 311.7 260.5 322 Q 248 334.5 221.5 333 Q 201.5 329.5 191 316.5 Q 183.2 308.3 180 295.5 L 179 290.5 L 179 275.5 Q 183.2 254.7 197.5 244 Q 206.3 236.8 219.5 234 Z M 214 287 L 209 289 L 204 297 L 206 304 L 219 312 L 228 314 L 236 313 L 247 308 Q 252 306 253 300 L 252 293 Q 249 288 244 287 L 239 288 L 232 293 L 226 293 Q 222 288 214 287 Z " /><path fill="rgb(0,0,0)" stroke="rgb(0,0,0)" stroke-width="1" opacity="0" d="M 126.5 288 Q 134.6 286.9 137.5 291 L 221 374.5 Q 225.1 377.4 224 385.5 L 219.5 391 L 211.5 392 L 121 302.5 L 120 294.5 L 124.5 289 L 126.5 288 Z " /><path fill="rgb(0,0,0)" stroke="rgb(0,0,0)" stroke-width="1" opacity="0" d="M 85.5 325 L 91.5 325 L 97.5 327 L 119.5 337 Q 141.7 349.8 158 368.5 L 176 394.5 L 185 414.5 L 187 420.5 L 187 426.5 L 181.5 433 L 175.5 434 L 169 429.5 Q 157 390 128.5 367 L 109.5 354 L 92.5 346 L 84.5 344 L 80 340.5 L 78 333.5 L 83.5 326 L 85.5 325 Z " /><path fill="rgb(0,0,0)" stroke="rgb(0,0,0)" stroke-width="1" opacity="0" d="M 0.5 506 L 4.5 511 L 6 511.5 L 0 512 L 0.5 506 Z " /><path fill="rgb(0,0,0)" stroke="rgb(0,0,0)" stroke-width="1" opacity="0.9372549019607843" d="M 389.5 0 L 392 0.5 L 389.5 1 L 389.5 0 Z " /><path fill="rgb(0,0,0)" stroke="rgb(0,0,0)" stroke-width="1" opacity="0.9372549019607843" d="M 500.5 0 L 504 0.5 L 500.5 1 L 500.5 0 Z " /><path fill="rgb(0,0,0)" stroke="rgb(0,0,0)" stroke-width="1" opacity="0.9372549019607843" d="M 373.5 7 L 370.5 11 L 373.5 7 Z " /><path fill="rgb(0,0,0)" stroke="rgb(0,0,0)" stroke-width="1" opacity="0.9372549019607843" d="M 511.5 8 L 512 11.5 L 511 11.5 L 511.5 8 Z " /><path fill="rgb(0,0,0)" stroke="rgb(0,0,0)" stroke-width="1" opacity="0.9372549019607843" d="M 416.5 12 L 417.5 14 L 416.5 12 Z " /><path fill="rgb(0,0,0)" stroke="rgb(0,0,0)" stroke-width="1" opacity="0.9372549019607843" d="M 421.5 64 L 422.5 66 L 421.5 64 Z " /><path fill="rgb(0,0,0)" stroke="rgb(0,0,0)" stroke-width="1" opacity="0.9372549019607843" d="M 425.5 69 L 426.5 71 L 425.5 69 Z " /><path fill="rgb(0,0,0)" stroke="rgb(0,0,0)" stroke-width="1" opacity="0.9372549019607843" d="M 347.5 77 L 434.5 165 L 347.5 77 Z " /><path fill="rgb(0,0,0)" stroke="rgb(0,0,0)" stroke-width="1" opacity="0.9372549019607843" d="M 408.5 81 L 409.5 83 L 408.5 81 Z " /><path fill="rgb(0,0,0)" stroke="rgb(0,0,0)" stroke-width="1" opacity="0.9372549019607843" d="M 441.5 85 L 442.5 87 L 441.5 85 Z " /><path fill="rgb(0,0,0)" stroke="rgb(0,0,0)" stroke-width="1" opacity="0.9372549019607843" d="M 332.5 89 L 334.5 92 L 332.5 89 Z " /><path fill="rgb(0,0,0)" stroke="rgb(0,0,0)" stroke-width="1" opacity="0.9372549019607843" d="M 446.5 89 L 447.5 91 L 446.5 89 Z " /><path fill="rgb(0,0,0)" stroke="rgb(0,0,0)" stroke-width="1" opacity="0.9372549019607843" d="M 398.5 99 L 401.5 103 L 398.5 99 Z " /><path fill="rgb(0,0,0)" stroke="rgb(0,0,0)" stroke-width="1" opacity="0.9372549019607843" d="M 429.5 102 L 430.5 104 L 429.5 102 Z " /><path fill="rgb(0,0,0)" stroke="rgb(0,0,0)" stroke-width="1" opacity="0.9372549019607843" d="M 409.5 110 L 412.5 114 L 409.5 110 Z " /><path fill="rgb(0,0,0)" stroke="rgb(0,0,0)" stroke-width="1" opacity="0.9372549019607843" d="M 511.5 115 L 512 117.5 L 511 117.5 L 511.5 115 Z " /><path fill="rgb(0,0,0)" stroke="rgb(0,0,0)" stroke-width="1" opacity="0.9372549019607843" d="M 297.5 116 L 296.5 118 L 297.5 116 Z " /><path fill="rgb(0,0,0)" stroke="rgb(0,0,0)" stroke-width="1" opacity="0.9372549019607843" d="M 511.5 119 L 512 121.5 L 511 121.5 L 511.5 119 Z " /><path fill="rgb(0,0,0)" stroke="rgb(0,0,0)" stroke-width="1" opacity="0.9372549019607843" d="M 288.5 125 L 287.5 127 L 288.5 125 Z " /><path fill="rgb(0,0,0)" stroke="rgb(0,0,0)" stroke-width="1" opacity="0.9372549019607843" d="M 371.5 129 L 372.5 131 L 371.5 129 Z " /><path fill="rgb(0,0,0)" stroke="rgb(0,0,0)" stroke-width="1" opacity="0.9372549019607843" d="M 309.5 131 L 307.5 134 L 309.5 131 Z " /><path fill="rgb(0,0,0)" stroke="rgb(0,0,0)" stroke-width="1" opacity="0.9372549019607843" d="M 305.5 135 L 302.5 139 L 305.5 135 Z " /><path fill="rgb(0,0,0)" stroke="rgb(0,0,0)" stroke-width="1" opacity="0.9372549019607843" d="M 504.5 138 L 501.5 142 L 504.5 138 Z " /><path fill="rgb(0,0,0)" stroke="rgb(0,0,0)" stroke-width="1" opacity="0.9372549019607843" d="M 381.5 139 L 382.5 141 L 381.5 139 Z " /><path fill="rgb(0,0,0)" stroke="rgb(0,0,0)" stroke-width="1" opacity="0.9372549019607843" d="M 448.5 149 L 449.5 151 L 448.5 149 Z " /><path fill="rgb(0,0,0)" stroke="rgb(0,0,0)" stroke-width="1" opacity="0.9372549019607843" d="M 226.5 159 L 225.5 161 L 226.5 159 Z " /><path fill="rgb(0,0,0)" stroke="rgb(0,0,0)" stroke-width="1" opacity="0.9372549019607843" d="M 261.5 161 L 262.5 163 L 261.5 161 Z " /><path fill="rgb(0,0,0)" stroke="rgb(0,0,0)" stroke-width="1" opacity="0.9372549019607843" d="M 291.5 166 L 292 173.5 L 291 173.5 L 291.5 166 Z " /><path fill="rgb(0,0,0)" stroke="rgb(0,0,0)" stroke-width="1" opacity="0.9372549019607843" d="M 465.5 172 L 464.5 174 L 465.5 172 Z " /><path fill="rgb(0,0,0)" stroke="rgb(0,0,0)" stroke-width="1" opacity="0.9372549019607843" d="M 249.5 176 L 335.5 263 L 249.5 176 Z " /><path fill="rgb(0,0,0)" stroke="rgb(0,0,0)" stroke-width="1" opacity="0.9372549019607843" d="M 361.5 176 L 363.5 179 L 361.5 176 Z " /><path fill="rgb(0,0,0)" stroke="rgb(0,0,0)" stroke-width="1" opacity="0.9372549019607843" d="M 334.5 177 L 335.5 179 L 334.5 177 Z " /><path fill="rgb(0,0,0)" stroke="rgb(0,0,0)" stroke-width="1" opacity="0.9372549019607843" d="M 420.5 177 L 422.5 180 L 420.5 177 Z " /><path fill="rgb(0,0,0)" stroke="rgb(0,0,0)" stroke-width="1" opacity="0.9372549019607843" d="M 340.5 180 L 344 180.5 L 340.5 181 L 340.5 180 Z " /><path fill="rgb(0,0,0)" stroke="rgb(0,0,0)" stroke-width="1" opacity="0.9372549019607843" d="M 232.5 182 L 233 186.5 L 232 186.5 L 232.5 182 Z " /><path fill="rgb(0,0,0)" stroke="rgb(0,0,0)" stroke-width="1" opacity="0.9372549019607843" d="M 365.5 183 L 366 185.5 L 365 185.5 L 365.5 183 Z " /><path fill="rgb(0,0,0)" stroke="rgb(0,0,0)" stroke-width="1" opacity="0.9372549019607843" d="M 322.5 192 L 323.5 194 L 322.5 192 Z " /><path fill="rgb(0,0,0)" stroke="rgb(0,0,0)" stroke-width="1" opacity="0.9372549019607843" d="M 218.5 201 L 219.5 203 L 218.5 201 Z " /><path fill="rgb(0,0,0)" stroke="rgb(0,0,0)" stroke-width="1" opacity="0.9372549019607843" d="M 380.5 202 L 378.5 205 L 380.5 202 Z " /><path fill="rgb(0,0,0)" stroke="rgb(0,0,0)" stroke-width="1" opacity="0.9372549019607843" d="M 376.5 206 L 373.5 210 L 376.5 206 Z " /><path fill="rgb(0,0,0)" stroke="rgb(0,0,0)" stroke-width="1" opacity="0.9372549019607843" d="M 395.5 214 L 394.5 216 L 395.5 214 Z " /><path fill="rgb(0,0,0)" stroke="rgb(0,0,0)" stroke-width="1" opacity="0.9372549019607843" d="M 337.5 220 L 341 220.5 L 337.5 221 L 337.5 220 Z " /><path fill="rgb(0,0,0)" stroke="rgb(0,0,0)" stroke-width="1" opacity="0.9372549019607843" d="M 342.5 220 L 346 220.5 L 342.5 221 L 342.5 220 Z " /><path fill="rgb(0,0,0)" stroke="rgb(0,0,0)" stroke-width="1" opacity="0.9372549019607843" d="M 387.5 222 L 385.5 225 L 387.5 222 Z " /><path fill="rgb(0,0,0)" stroke="rgb(0,0,0)" stroke-width="1" opacity="0.9372549019607843" d="M 382.5 226 L 381.5 228 L 382.5 226 Z " /><path fill="rgb(0,0,0)" stroke="rgb(0,0,0)" stroke-width="1" opacity="0.9372549019607843" d="M 184.5 229 L 183.5 231 L 184.5 229 Z " /><path fill="rgb(0,0,0)" stroke="rgb(0,0,0)" stroke-width="1" opacity="0.9372549019607843" d="M 175.5 238 L 174.5 240 L 175.5 238 Z " /><path fill="rgb(0,0,0)" stroke="rgb(0,0,0)" stroke-width="1" opacity="0.9372549019607843" d="M 200.5 241 L 199.5 243 L 200.5 241 Z " /><path fill="rgb(0,0,0)" stroke="rgb(0,0,0)" stroke-width="1" opacity="0.9372549019607843" d="M 259.5 243 L 260.5 245 L 259.5 243 Z " /><path fill="rgb(0,0,0)" stroke="rgb(0,0,0)" stroke-width="1" opacity="0.9372549019607843" d="M 196.5 244 L 194.5 247 L 196.5 244 Z " /><path fill="rgb(0,0,0)" stroke="rgb(0,0,0)" stroke-width="1" opacity="0.9372549019607843" d="M 192.5 248 L 189.5 252 L 192.5 248 Z " /><path fill="rgb(0,0,0)" stroke="rgb(0,0,0)" stroke-width="1" opacity="0.9372549019607843" d="M 349.5 249 L 350.5 251 L 349.5 249 Z " /><path fill="rgb(0,0,0)" stroke="rgb(0,0,0)" stroke-width="1" opacity="0.9372549019607843" d="M 267.5 251 L 268.5 253 L 267.5 251 Z " /><path fill="rgb(0,0,0)" stroke="rgb(0,0,0)" stroke-width="1" opacity="0.9372549019607843" d="M 187.5 254 L 186.5 256 L 187.5 254 Z " /><path fill="rgb(0,0,0)" stroke="rgb(0,0,0)" stroke-width="1" opacity="0.9372549019607843" d="M 149.5 275 L 157.5 284 L 149.5 275 Z " /><path fill="rgb(0,0,0)" stroke="rgb(0,0,0)" stroke-width="1" opacity="0.9372549019607843" d="M 326.5 279 L 330 279.5 L 326.5 280 L 326.5 279 Z " /><path fill="rgb(0,0,0)" stroke="rgb(0,0,0)" stroke-width="1" opacity="0.9372549019607843" d="M 352.5 285 L 351.5 287 L 352.5 285 Z " /><path fill="rgb(0,0,0)" stroke="rgb(0,0,0)" stroke-width="1" opacity="0.9372549019607843" d="M 178.5 286 L 179 288.5 L 178 288.5 L 178.5 286 Z " /><path fill="rgb(0,0,0)" stroke="rgb(0,0,0)" stroke-width="1" opacity="0.9372549019607843" d="M 309.5 292 L 310.5 294 L 309.5 292 Z " /><path fill="rgb(0,0,0)" stroke="rgb(0,0,0)" stroke-width="1" opacity="0.9372549019607843" d="M 249.5 304 L 248.5 306 L 249.5 304 Z " /><path fill="rgb(0,0,0)" stroke="rgb(0,0,0)" stroke-width="1" opacity="0.9372549019607843" d="M 101.5 306 L 102 308 L 100 307.5 L 101.5 306 Z " /><path fill="rgb(0,0,0)" stroke="rgb(0,0,0)" stroke-width="1" opacity="0.9372549019607843" d="M 245.5 307 L 244.5 309 L 245.5 307 Z " /><path fill="rgb(0,0,0)" stroke="rgb(0,0,0)" stroke-width="1" opacity="0.9372549019607843" d="M 270.5 311 L 269.5 313 L 270.5 311 Z " /><path fill="rgb(0,0,0)" stroke="rgb(0,0,0)" stroke-width="1" opacity="0.9372549019607843" d="M 68.5 312 L 65.5 316 L 68.5 312 Z " /><path fill="rgb(0,0,0)" stroke="rgb(0,0,0)" stroke-width="1" opacity="0.9372549019607843" d="M 267.5 315 L 264.5 319 L 267.5 315 Z " /><path fill="rgb(0,0,0)" stroke="rgb(0,0,0)" stroke-width="1" opacity="0.9372549019607843" d="M 163.5 316 L 164.5 318 L 163.5 316 Z " /><path fill="rgb(0,0,0)" stroke="rgb(0,0,0)" stroke-width="1" opacity="0.9372549019607843" d="M 191.5 317 L 194.5 321 L 191.5 317 Z " /><path fill="rgb(0,0,0)" stroke="rgb(0,0,0)" stroke-width="1" opacity="0.9372549019607843" d="M 262.5 320 L 260.5 323 L 262.5 320 Z " /><path fill="rgb(0,0,0)" stroke="rgb(0,0,0)" stroke-width="1" opacity="0.9372549019607843" d="M 257.5 324 L 256.5 326 L 257.5 324 Z " /><path fill="rgb(0,0,0)" stroke="rgb(0,0,0)" stroke-width="1" opacity="0.9372549019607843" d="M 282.5 327 L 281.5 329 L 282.5 327 Z " /><path fill="rgb(0,0,0)" stroke="rgb(0,0,0)" stroke-width="1" opacity="0.9372549019607843" d="M 58.5 333 L 59 336.5 L 58 336.5 L 58.5 333 Z " /><path fill="rgb(0,0,0)" stroke="rgb(0,0,0)" stroke-width="1" opacity="0.9372549019607843" d="M 273.5 336 L 272.5 338 L 273.5 336 Z " /><path fill="rgb(0,0,0)" stroke="rgb(0,0,0)" stroke-width="1" opacity="0.9372549019607843" d="M 138.5 349 L 139.5 351 L 138.5 349 Z " /><path fill="rgb(0,0,0)" stroke="rgb(0,0,0)" stroke-width="1" opacity="0.9372549019607843" d="M 63.5 351 L 64.5 353 L 63.5 351 Z " /><path fill="rgb(0,0,0)" stroke="rgb(0,0,0)" stroke-width="1" opacity="0.9372549019607843" d="M 144.5 354 L 146.5 357 L 144.5 354 Z " /><path fill="rgb(0,0,0)" stroke="rgb(0,0,0)" stroke-width="1" opacity="0.9372549019607843" d="M 228.5 354 L 236.5 363 L 228.5 354 Z " /><path fill="rgb(0,0,0)" stroke="rgb(0,0,0)" stroke-width="1" opacity="0.9372549019607843" d="M 152.5 362 L 157.5 368 L 152.5 362 Z " /><path fill="rgb(0,0,0)" stroke="rgb(0,0,0)" stroke-width="1" opacity="0.9372549019607843" d="M 126.5 366 L 127.5 368 L 126.5 366 Z " /><path fill="rgb(0,0,0)" stroke="rgb(0,0,0)" stroke-width="1" opacity="0.9372549019607843" d="M 132.5 371 L 140.5 380 L 132.5 371 Z " /><path fill="rgb(0,0,0)" stroke="rgb(0,0,0)" stroke-width="1" opacity="0.9372549019607843" d="M 161.5 372 L 162.5 374 L 161.5 372 Z " /><path fill="rgb(0,0,0)" stroke="rgb(0,0,0)" stroke-width="1" opacity="0.9372549019607843" d="M 114.5 381 L 115.5 383 L 114.5 381 Z " /><path fill="rgb(0,0,0)" stroke="rgb(0,0,0)" stroke-width="1" opacity="0.9372549019607843" d="M 144.5 384 L 145.5 386 L 144.5 384 Z " /><path fill="rgb(0,0,0)" stroke="rgb(0,0,0)" stroke-width="1" opacity="0.9372549019607843" d="M 129.5 396 L 130.5 398 L 129.5 396 Z " /><path fill="rgb(0,0,0)" stroke="rgb(0,0,0)" stroke-width="1" opacity="0.9372549019607843" d="M 204 410 L 206 410.5 L 204 411.5 L 204 410 Z " /><path fill="rgb(0,0,0)" stroke="rgb(0,0,0)" stroke-width="1" opacity="0.9372549019607843" d="M 199.5 443 L 196.5 447 L 199.5 443 Z " /><path fill="rgb(0,0,0)" stroke="rgb(0,0,0)" stroke-width="1" opacity="0.9372549019607843" d="M 159.5 447 L 160.5 449 L 159.5 447 Z " /><path fill="rgb(0,0,0)" stroke="rgb(0,0,0)" stroke-width="1" opacity="0.9372549019607843" d="M 175.5 453 L 179 453.5 L 175.5 454 L 175.5 453 Z " /><path fill="rgb(0,0,0)" stroke="rgb(0,0,0)" stroke-width="1" opacity="0.9372549019607843" d="M 0.5 500 L 1 503.5 L 0 503.5 L 0.5 500 Z " /><path fill="rgb(0,0,0)" stroke="rgb(0,0,0)" stroke-width="1" opacity="0.9372549019607843" d="M 8.5 511 L 12 511.5 L 8.5 512 L 8.5 511 Z " /><path fill="rgb(0,0,0)" stroke="rgb(0,0,0)" stroke-width="1" opacity="1" d="M 392.5 0 L 405.5 3 L 416 11.5 L 421 20.5 L 423 28.5 L 429 41.5 L 440.5 57 L 496.5 2 L 505.5 1 L 510 4.5 L 511 13.5 L 455 71.5 L 472.5 84 L 499.5 95 L 506 101.5 L 510 108.5 L 512 118.5 Q 509.2 120.3 511 126.5 L 508 133.5 L 498.5 144 Q 491.3 149.3 478.5 149 L 469.5 146 L 469 149.5 L 470 150.5 L 470 162.5 Q 466.6 173.6 458.5 180 Q 451.7 186.2 438.5 186 L 424.5 181 L 411.5 169 L 411 180.5 L 407 195.5 Q 400.3 211.3 388.5 222 Q 378.9 230.9 365.5 236 L 354.5 239 L 341 240.5 Q 349.6 247.5 355 257.5 Q 358.4 263.6 357 274.5 Q 354 286.5 345.5 293 Q 338.4 299.4 324.5 299 L 312.5 295 L 298.5 282 Q 298.3 298.8 293 310.5 Q 286.3 325.8 274.5 336 L 255.5 348 L 242.5 352 L 228 353 L 228 354.5 L 239 365.5 L 243 373.5 L 244 387.5 Q 241 399.5 232.5 406 Q 225.1 412.6 210.5 412 L 204 410 L 207 419.5 L 207 427.5 Q 204.4 441.4 194.5 448 Q 187 455 170.5 453 Q 160.1 449.9 154 442.5 L 149 433.5 Q 146.4 420.1 140 410.5 L 129.5 396 L 15.5 510 L 6.5 511 L 2 507.5 L 1 498.5 L 116 382.5 L 101.5 372 L 89.5 366 L 72.5 360 L 65 353.5 L 59 341.5 L 59 328.5 Q 62.3 316.3 71.5 310 L 83.5 305 L 92.5 305 L 102 308 Q 99.1 303.1 100 293.5 Q 102.6 280.6 111.5 274 Q 118.8 266.8 134.5 268 L 146.5 273 L 157.5 284 L 159 284 L 160 269.5 L 164 256.5 Q 170.8 241.3 182.5 231 Q 192.5 222 206.5 217 L 219.5 214 L 230 213.5 L 217 199.5 Q 212.6 192.9 213 181.5 Q 215.3 167.8 224.5 161 Q 232.1 153.6 248.5 155 L 258.5 159 L 271.5 171 L 273 157.5 L 278 141.5 Q 284.5 127.5 295.5 118 Q 304.5 110 316.5 105 L 331.5 101 L 343 100.5 L 331 87.5 Q 326.1 80.9 326 69.5 L 330 56.5 L 338.5 47 L 349.5 42 L 362.5 42 L 365.5 43 L 365 41.5 L 363 33.5 L 363 26.5 Q 365.6 12.6 375.5 6 L 382.5 2 L 392.5 0 Z M 390 20 L 385 22 L 382 29 L 388 49 Q 396 67 408 82 Q 421 98 439 110 Q 456 123 481 130 L 487 129 L 492 123 L 491 114 L 486 109 Q 471 106 461 99 L 441 85 Q 413 63 402 25 Q 400 18 390 20 Z M 353 61 L 351 62 Q 346 65 345 71 L 347 78 L 435 165 L 441 167 L 447 165 L 451 160 L 450 151 L 409 110 L 402 103 L 362 62 L 353 61 Z M 334 120 Q 319 123 310 131 L 298 145 L 293 156 L 291 167 L 293 185 L 301 201 L 318 215 L 328 219 L 338 221 L 346 221 L 357 219 L 374 210 Q 388 199 392 178 L 392 163 L 391 158 L 383 141 Q 375 129 361 123 L 350 120 L 334 120 Z M 240 174 L 238 175 L 232 183 Q 231 188 234 191 L 322 278 L 327 280 L 334 278 L 338 273 Q 339 266 336 263 L 250 176 Q 247 173 240 174 Z M 222 233 Q 206 236 197 244 L 186 256 L 181 266 L 178 279 L 178 289 L 180 299 Q 184 310 191 318 L 203 327 L 214 332 L 224 334 L 234 334 L 244 332 L 261 323 Q 275 312 279 290 L 278 272 Q 275 260 269 253 Q 261 243 250 237 L 236 233 L 222 233 Z M 128 287 L 125 288 L 119 296 L 120 303 L 210 392 L 213 393 L 220 392 L 225 385 Q 226 377 222 376 Q 223 373 220 374 L 220 372 L 215 369 Q 216 366 214 367 L 203 357 L 203 355 L 195 349 Q 196 346 194 347 L 171 325 L 171 323 L 167 321 L 165 318 L 159 313 Q 160 310 158 311 L 148 302 L 148 300 L 147 300 L 135 288 L 128 287 Z M 87 324 L 84 325 L 78 332 L 79 341 L 83 344 Q 99 348 112 356 L 129 368 Q 157 390 168 430 L 174 434 L 183 433 L 188 426 L 188 422 L 185 413 L 174 390 L 158 368 Q 143 350 123 338 L 100 327 L 91 324 L 87 324 Z " /><path fill="rgb(0,0,0)" stroke="rgb(0,0,0)" stroke-width="1" opacity="1" d="M 324.5 175 L 330.5 175 Q 334.4 180.6 343.5 181 L 353.5 175 L 358.5 175 L 365 180.5 Q 366.6 191.6 359.5 194 Q 352.4 200.4 338.5 200 Q 326.4 198.1 320 190.5 Q 317.3 188.2 318 182.5 L 322.5 176 L 324.5 175 Z " /><path fill="rgb(0,0,0)" stroke="rgb(0,0,0)" stroke-width="1" opacity="1" d="M 212.5 288 L 216.5 288 L 223.5 293 L 230.5 294 L 240.5 288 L 245.5 288 L 251 292.5 L 252 300.5 L 246.5 307 Q 239.1 313.6 224.5 313 Q 212.4 310.6 206 302.5 L 205 294.5 L 209.5 289 L 212.5 288 Z " /><path fill="rgb(0,0,0)" stroke="rgb(0,0,0)" stroke-width="1" opacity="0.6235294117647059" d="M 396.5 0 L 399 0.5 L 396.5 1 L 396.5 0 Z " /><path fill="rgb(0,0,0)" stroke="rgb(0,0,0)" stroke-width="1" opacity="0.6235294117647059" d="M 496.5 1 L 441.5 57 L 438 54.5 L 440.5 56 L 496.5 1 Z " /><path fill="rgb(0,0,0)" stroke="rgb(0,0,0)" stroke-width="1" opacity="0.6235294117647059" d="M 507.5 1 L 509.5 4 L 507.5 1 Z " /><path fill="rgb(0,0,0)" stroke="rgb(0,0,0)" stroke-width="1" opacity="0.6235294117647059" d="M 375.5 5 L 374.5 7 L 375.5 5 Z " /><path fill="rgb(0,0,0)" stroke="rgb(0,0,0)" stroke-width="1" opacity="0.6235294117647059" d="M 411.5 6 L 416.5 12 L 411.5 6 Z " /><path fill="rgb(0,0,0)" stroke="rgb(0,0,0)" stroke-width="1" opacity="0.6235294117647059" d="M 369.5 11 L 368.5 13 L 369.5 11 Z " /><path fill="rgb(0,0,0)" stroke="rgb(0,0,0)" stroke-width="1" opacity="0.6235294117647059" d="M 509.5 16 L 456 70.5 L 458 73.5 L 455 71.5 L 509.5 16 Z " /><path fill="rgb(0,0,0)" stroke="rgb(0,0,0)" stroke-width="1" opacity="0.6235294117647059" d="M 387.5 21 L 384.5 25 L 387.5 21 Z " /><path fill="rgb(0,0,0)" stroke="rgb(0,0,0)" stroke-width="1" opacity="0.6235294117647059" d="M 398.5 21 L 400.5 24 L 398.5 21 Z " /><path fill="rgb(0,0,0)" stroke="rgb(0,0,0)" stroke-width="1" opacity="0.6235294117647059" d="M 351.5 41 L 361 41.5 L 351.5 42 L 351.5 41 Z " /><path fill="rgb(0,0,0)" stroke="rgb(0,0,0)" stroke-width="1" opacity="0.6235294117647059" d="M 337.5 47 L 332.5 53 L 337.5 47 Z " /><path fill="rgb(0,0,0)" stroke="rgb(0,0,0)" stroke-width="1" opacity="0.6235294117647059" d="M 433.5 47 L 434.5 49 L 433.5 47 Z " /><path fill="rgb(0,0,0)" stroke="rgb(0,0,0)" stroke-width="1" opacity="0.6235294117647059" d="M 411.5 49 L 412.5 51 L 411.5 49 Z " /><path fill="rgb(0,0,0)" stroke="rgb(0,0,0)" stroke-width="1" opacity="0.6235294117647059" d="M 435.5 50 L 436.5 52 L 435.5 50 Z " /><path fill="rgb(0,0,0)" stroke="rgb(0,0,0)" stroke-width="1" opacity="0.6235294117647059" d="M 417.5 59 L 418.5 61 L 417.5 59 Z " /><path fill="rgb(0,0,0)" stroke="rgb(0,0,0)" stroke-width="1" opacity="0.6235294117647059" d="M 349.5 63 L 347.5 66 L 349.5 63 Z " /><path fill="rgb(0,0,0)" stroke="rgb(0,0,0)" stroke-width="1" opacity="0.6235294117647059" d="M 362.5 63 L 397.5 99 L 362.5 63 Z " /><path fill="rgb(0,0,0)" stroke="rgb(0,0,0)" stroke-width="1" opacity="0.6235294117647059" d="M 326.5 64 L 327 66.5 L 326 66.5 L 326.5 64 Z " /><path fill="rgb(0,0,0)" stroke="rgb(0,0,0)" stroke-width="1" opacity="0.6235294117647059" d="M 397.5 65 L 398.5 67 L 397.5 65 Z " /><path fill="rgb(0,0,0)" stroke="rgb(0,0,0)" stroke-width="1" opacity="0.6235294117647059" d="M 422.5 66 L 424.5 69 L 422.5 66 Z " /><path fill="rgb(0,0,0)" stroke="rgb(0,0,0)" stroke-width="1" opacity="0.6235294117647059" d="M 399.5 68 L 400.5 70 L 399.5 68 Z " /><path fill="rgb(0,0,0)" stroke="rgb(0,0,0)" stroke-width="1" opacity="0.6235294117647059" d="M 427.5 72 L 432.5 78 L 427.5 72 Z " /><path fill="rgb(0,0,0)" stroke="rgb(0,0,0)" stroke-width="1" opacity="0.6235294117647059" d="M 403.5 74 L 404.5 76 L 403.5 74 Z " /><path fill="rgb(0,0,0)" stroke="rgb(0,0,0)" stroke-width="1" opacity="0.6235294117647059" d="M 326.5 75 L 327 77.5 L 326 77.5 L 326.5 75 Z " /><path fill="rgb(0,0,0)" stroke="rgb(0,0,0)" stroke-width="1" opacity="0.6235294117647059" d="M 460.5 75 L 461.5 77 L 460.5 75 Z " /><path fill="rgb(0,0,0)" stroke="rgb(0,0,0)" stroke-width="1" opacity="0.6235294117647059" d="M 463.5 77 L 464.5 79 L 463.5 77 Z " /><path fill="rgb(0,0,0)" stroke="rgb(0,0,0)" stroke-width="1" opacity="0.6235294117647059" d="M 406.5 78 L 407.5 80 L 406.5 78 Z " /><path fill="rgb(0,0,0)" stroke="rgb(0,0,0)" stroke-width="1" opacity="0.6235294117647059" d="M 434.5 79 L 439.5 85 L 434.5 79 Z " /><path fill="rgb(0,0,0)" stroke="rgb(0,0,0)" stroke-width="1" opacity="0.6235294117647059" d="M 410.5 83 L 428.5 102 L 410.5 83 Z " /><path fill="rgb(0,0,0)" stroke="rgb(0,0,0)" stroke-width="1" opacity="0.6235294117647059" d="M 330.5 87 L 331.5 89 L 330.5 87 Z " /><path fill="rgb(0,0,0)" stroke="rgb(0,0,0)" stroke-width="1" opacity="0.6235294117647059" d="M 443.5 87 L 445.5 90 L 443.5 87 Z " /><path fill="rgb(0,0,0)" stroke="rgb(0,0,0)" stroke-width="1" opacity="0.6235294117647059" d="M 500.5 95 L 505.5 101 L 500.5 95 Z " /><path fill="rgb(0,0,0)" stroke="rgb(0,0,0)" stroke-width="1" opacity="0.6235294117647059" d="M 461.5 99 L 462.5 101 L 461.5 99 Z " /><path fill="rgb(0,0,0)" stroke="rgb(0,0,0)" stroke-width="1" opacity="0.6235294117647059" d="M 334.5 100 L 342 100.5 L 334.5 101 L 334.5 100 Z " /><path fill="rgb(0,0,0)" stroke="rgb(0,0,0)" stroke-width="1" opacity="0.6235294117647059" d="M 432.5 104 L 433.5 106 L 432.5 104 Z " /><path fill="rgb(0,0,0)" stroke="rgb(0,0,0)" stroke-width="1" opacity="0.6235294117647059" d="M 403.5 105 L 406.5 109 L 403.5 105 Z " /><path fill="rgb(0,0,0)" stroke="rgb(0,0,0)" stroke-width="1" opacity="0.6235294117647059" d="M 436.5 107 L 437.5 109 L 436.5 107 Z " /><path fill="rgb(0,0,0)" stroke="rgb(0,0,0)" stroke-width="1" opacity="0.6235294117647059" d="M 303.5 111 L 302.5 113 L 303.5 111 Z " /><path fill="rgb(0,0,0)" stroke="rgb(0,0,0)" stroke-width="1" opacity="0.6235294117647059" d="M 442.5 111 L 443.5 113 L 442.5 111 Z " /><path fill="rgb(0,0,0)" stroke="rgb(0,0,0)" stroke-width="1" opacity="0.6235294117647059" d="M 488.5 111 L 490.5 114 L 488.5 111 Z " /><path fill="rgb(0,0,0)" stroke="rgb(0,0,0)" stroke-width="1" opacity="0.6235294117647059" d="M 300.5 113 L 298.5 116 L 300.5 113 Z " /><path fill="rgb(0,0,0)" stroke="rgb(0,0,0)" stroke-width="1" opacity="0.6235294117647059" d="M 413.5 114 L 447.5 149 L 413.5 114 Z " /><path fill="rgb(0,0,0)" stroke="rgb(0,0,0)" stroke-width="1" opacity="0.6235294117647059" d="M 294.5 118 L 289.5 124 L 294.5 118 Z " /><path fill="rgb(0,0,0)" stroke="rgb(0,0,0)" stroke-width="1" opacity="0.6235294117647059" d="M 335.5 120 L 340 120.5 L 335.5 121 L 335.5 120 Z " /><path fill="rgb(0,0,0)" stroke="rgb(0,0,0)" stroke-width="1" opacity="0.6235294117647059" d="M 343.5 120 L 349 120.5 L 343.5 121 L 343.5 120 Z " /><path fill="rgb(0,0,0)" stroke="rgb(0,0,0)" stroke-width="1" opacity="0.6235294117647059" d="M 511.5 122 L 512 124.5 L 511 124.5 L 511.5 122 Z " /><path fill="rgb(0,0,0)" stroke="rgb(0,0,0)" stroke-width="1" opacity="0.6235294117647059" d="M 490.5 124 L 487.5 128 L 490.5 124 Z " /><path fill="rgb(0,0,0)" stroke="rgb(0,0,0)" stroke-width="1" opacity="0.6235294117647059" d="M 286.5 127 L 285.5 129 L 286.5 127 Z " /><path fill="rgb(0,0,0)" stroke="rgb(0,0,0)" stroke-width="1" opacity="0.6235294117647059" d="M 315.5 127 L 314.5 129 L 315.5 127 Z " /><path fill="rgb(0,0,0)" stroke="rgb(0,0,0)" stroke-width="1" opacity="0.6235294117647059" d="M 369.5 128 L 370.5 130 L 369.5 128 Z " /><path fill="rgb(0,0,0)" stroke="rgb(0,0,0)" stroke-width="1" opacity="0.6235294117647059" d="M 312.5 129 L 311.5 131 L 312.5 129 Z " /><path fill="rgb(0,0,0)" stroke="rgb(0,0,0)" stroke-width="1" opacity="0.6235294117647059" d="M 373.5 131 L 380.5 139 L 373.5 131 Z " /><path fill="rgb(0,0,0)" stroke="rgb(0,0,0)" stroke-width="1" opacity="0.6235294117647059" d="M 506.5 136 L 505.5 138 L 506.5 136 Z " /><path fill="rgb(0,0,0)" stroke="rgb(0,0,0)" stroke-width="1" opacity="0.6235294117647059" d="M 302.5 139 L 301.5 141 L 302.5 139 Z " /><path fill="rgb(0,0,0)" stroke="rgb(0,0,0)" stroke-width="1" opacity="0.6235294117647059" d="M 382.5 141 L 383.5 143 L 382.5 141 Z " /><path fill="rgb(0,0,0)" stroke="rgb(0,0,0)" stroke-width="1" opacity="0.6235294117647059" d="M 500.5 142 L 499.5 144 L 500.5 142 Z " /><path fill="rgb(0,0,0)" stroke="rgb(0,0,0)" stroke-width="1" opacity="0.6235294117647059" d="M 298.5 145 L 297.5 147 L 298.5 145 Z " /><path fill="rgb(0,0,0)" stroke="rgb(0,0,0)" stroke-width="1" opacity="0.6235294117647059" d="M 470.5 151 L 471 160.5 L 470 160.5 L 470.5 151 Z " /><path fill="rgb(0,0,0)" stroke="rgb(0,0,0)" stroke-width="1" opacity="0.6235294117647059" d="M 450.5 153 L 451 155.5 L 450 155.5 L 450.5 153 Z " /><path fill="rgb(0,0,0)" stroke="rgb(0,0,0)" stroke-width="1" opacity="0.6235294117647059" d="M 239.5 154 L 247 154.5 L 239.5 155 L 239.5 154 Z " /><path fill="rgb(0,0,0)" stroke="rgb(0,0,0)" stroke-width="1" opacity="0.6235294117647059" d="M 259.5 159 L 260.5 161 L 259.5 159 Z " /><path fill="rgb(0,0,0)" stroke="rgb(0,0,0)" stroke-width="1" opacity="0.6235294117647059" d="M 272.5 159 L 273 162.5 L 272 162.5 L 272.5 159 Z " /><path fill="rgb(0,0,0)" stroke="rgb(0,0,0)" stroke-width="1" opacity="0.6235294117647059" d="M 224.5 160 L 219.5 166 L 224.5 160 Z " /><path fill="rgb(0,0,0)" stroke="rgb(0,0,0)" stroke-width="1" opacity="0.6235294117647059" d="M 292.5 160 L 293 162.5 L 292 162.5 L 292.5 160 Z " /><path fill="rgb(0,0,0)" stroke="rgb(0,0,0)" stroke-width="1" opacity="0.6235294117647059" d="M 448.5 162 L 446.5 165 L 448.5 162 Z " /><path fill="rgb(0,0,0)" stroke="rgb(0,0,0)" stroke-width="1" opacity="0.6235294117647059" d="M 391.5 163 L 392 168.5 L 391 168.5 L 391.5 163 Z " /><path fill="rgb(0,0,0)" stroke="rgb(0,0,0)" stroke-width="1" opacity="0.6235294117647059" d="M 411.5 170 L 412 177.5 L 411 177.5 L 411.5 170 Z " /><path fill="rgb(0,0,0)" stroke="rgb(0,0,0)" stroke-width="1" opacity="0.6235294117647059" d="M 391.5 171 L 392 176.5 L 391 176.5 L 391.5 171 Z " /><path fill="rgb(0,0,0)" stroke="rgb(0,0,0)" stroke-width="1" opacity="0.6235294117647059" d="M 414.5 172 L 418.5 177 L 414.5 172 Z " /><path fill="rgb(0,0,0)" stroke="rgb(0,0,0)" stroke-width="1" opacity="0.6235294117647059" d="M 240.5 174 L 245 174.5 L 240.5 175 L 240.5 174 Z " /><path fill="rgb(0,0,0)" stroke="rgb(0,0,0)" stroke-width="1" opacity="0.6235294117647059" d="M 325.5 174 L 330 174.5 L 325.5 175 L 325.5 174 Z " /><path fill="rgb(0,0,0)" stroke="rgb(0,0,0)" stroke-width="1" opacity="0.6235294117647059" d="M 354.5 174 L 358 174.5 L 354.5 175 L 354.5 174 Z " /><path fill="rgb(0,0,0)" stroke="rgb(0,0,0)" stroke-width="1" opacity="0.6235294117647059" d="M 464.5 174 L 459.5 180 L 464.5 174 Z " /><path fill="rgb(0,0,0)" stroke="rgb(0,0,0)" stroke-width="1" opacity="0.6235294117647059" d="M 236.5 176 L 234.5 179 L 236.5 176 Z " /><path fill="rgb(0,0,0)" stroke="rgb(0,0,0)" stroke-width="1" opacity="0.6235294117647059" d="M 321.5 176 L 319.5 179 L 321.5 176 Z " /><path fill="rgb(0,0,0)" stroke="rgb(0,0,0)" stroke-width="1" opacity="0.6235294117647059" d="M 292.5 177 L 293 179.5 L 292 179.5 L 292.5 177 Z " /><path fill="rgb(0,0,0)" stroke="rgb(0,0,0)" stroke-width="1" opacity="0.6235294117647059" d="M 348.5 177 L 347.5 179 L 348.5 177 Z " /><path fill="rgb(0,0,0)" stroke="rgb(0,0,0)" stroke-width="1" opacity="0.6235294117647059" d="M 423.5 180 L 424.5 182 L 423.5 180 Z " /><path fill="rgb(0,0,0)" stroke="rgb(0,0,0)" stroke-width="1" opacity="0.6235294117647059" d="M 445.5 185 L 448 185.5 L 445.5 186 L 445.5 185 Z " /><path fill="rgb(0,0,0)" stroke="rgb(0,0,0)" stroke-width="1" opacity="0.6235294117647059" d="M 364.5 189 L 363.5 191 L 364.5 189 Z " /><path fill="rgb(0,0,0)" stroke="rgb(0,0,0)" stroke-width="1" opacity="0.6235294117647059" d="M 235.5 191 L 320.5 277 L 235.5 191 Z " /><path fill="rgb(0,0,0)" stroke="rgb(0,0,0)" stroke-width="1" opacity="0.6235294117647059" d="M 320.5 191 L 321.5 193 L 320.5 191 Z " /><path fill="rgb(0,0,0)" stroke="rgb(0,0,0)" stroke-width="1" opacity="0.6235294117647059" d="M 361.5 192 L 359.5 195 L 361.5 192 Z " /><path fill="rgb(0,0,0)" stroke="rgb(0,0,0)" stroke-width="1" opacity="0.6235294117647059" d="M 324.5 194 L 325.5 196 L 324.5 194 Z " /><path fill="rgb(0,0,0)" stroke="rgb(0,0,0)" stroke-width="1" opacity="0.6235294117647059" d="M 357.5 195 L 356.5 197 L 357.5 195 Z " /><path fill="rgb(0,0,0)" stroke="rgb(0,0,0)" stroke-width="1" opacity="0.6235294117647059" d="M 384.5 196 L 383.5 198 L 384.5 196 Z " /><path fill="rgb(0,0,0)" stroke="rgb(0,0,0)" stroke-width="1" opacity="0.6235294117647059" d="M 382.5 199 L 381.5 201 L 382.5 199 Z " /><path fill="rgb(0,0,0)" stroke="rgb(0,0,0)" stroke-width="1" opacity="0.6235294117647059" d="M 302.5 201 L 310.5 210 L 302.5 201 Z " /><path fill="rgb(0,0,0)" stroke="rgb(0,0,0)" stroke-width="1" opacity="0.6235294117647059" d="M 219.5 203 L 229 212.5 L 229 214 L 222 213.5 L 228 212.5 L 219.5 203 Z " /><path fill="rgb(0,0,0)" stroke="rgb(0,0,0)" stroke-width="1" opacity="0.6235294117647059" d="M 400.5 208 L 399.5 210 L 400.5 208 Z " /><path fill="rgb(0,0,0)" stroke="rgb(0,0,0)" stroke-width="1" opacity="0.6235294117647059" d="M 372.5 209 L 371.5 211 L 372.5 209 Z " /><path fill="rgb(0,0,0)" stroke="rgb(0,0,0)" stroke-width="1" opacity="0.6235294117647059" d="M 397.5 212 L 396.5 214 L 397.5 212 Z " /><path fill="rgb(0,0,0)" stroke="rgb(0,0,0)" stroke-width="1" opacity="0.6235294117647059" d="M 366.5 213 L 365.5 215 L 366.5 213 Z " /><path fill="rgb(0,0,0)" stroke="rgb(0,0,0)" stroke-width="1" opacity="0.6235294117647059" d="M 215.5 214 L 218 214.5 L 215.5 215 L 215.5 214 Z " /><path fill="rgb(0,0,0)" stroke="rgb(0,0,0)" stroke-width="1" opacity="0.6235294117647059" d="M 393.5 217 L 388.5 223 L 393.5 217 Z " /><path fill="rgb(0,0,0)" stroke="rgb(0,0,0)" stroke-width="1" opacity="0.6235294117647059" d="M 332.5 219 L 335 219.5 L 332.5 220 L 332.5 219 Z " /><path fill="rgb(0,0,0)" stroke="rgb(0,0,0)" stroke-width="1" opacity="0.6235294117647059" d="M 349.5 219 L 352 219.5 L 349.5 220 L 349.5 219 Z " /><path fill="rgb(0,0,0)" stroke="rgb(0,0,0)" stroke-width="1" opacity="0.6235294117647059" d="M 195.5 221 L 194.5 223 L 195.5 221 Z " /><path fill="rgb(0,0,0)" stroke="rgb(0,0,0)" stroke-width="1" opacity="0.6235294117647059" d="M 190.5 224 L 189.5 226 L 190.5 224 Z " /><path fill="rgb(0,0,0)" stroke="rgb(0,0,0)" stroke-width="1" opacity="0.6235294117647059" d="M 384.5 225 L 383.5 227 L 384.5 225 Z " /><path fill="rgb(0,0,0)" stroke="rgb(0,0,0)" stroke-width="1" opacity="0.6235294117647059" d="M 186.5 227 L 185.5 229 L 186.5 227 Z " /><path fill="rgb(0,0,0)" stroke="rgb(0,0,0)" stroke-width="1" opacity="0.6235294117647059" d="M 181.5 231 L 176.5 237 L 181.5 231 Z " /><path fill="rgb(0,0,0)" stroke="rgb(0,0,0)" stroke-width="1" opacity="0.6235294117647059" d="M 223.5 233 L 235 233.5 L 223.5 234 L 223.5 233 Z " /><path fill="rgb(0,0,0)" stroke="rgb(0,0,0)" stroke-width="1" opacity="0.6235294117647059" d="M 350.5 239 L 353 239.5 L 350.5 240 L 350.5 239 Z " /><path fill="rgb(0,0,0)" stroke="rgb(0,0,0)" stroke-width="1" opacity="0.6235294117647059" d="M 173.5 240 L 172.5 242 L 173.5 240 Z " /><path fill="rgb(0,0,0)" stroke="rgb(0,0,0)" stroke-width="1" opacity="0.6235294117647059" d="M 257.5 242 L 258.5 244 L 257.5 242 Z " /><path fill="rgb(0,0,0)" stroke="rgb(0,0,0)" stroke-width="1" opacity="0.6235294117647059" d="M 343.5 242 L 344.5 244 L 343.5 242 Z " /><path fill="rgb(0,0,0)" stroke="rgb(0,0,0)" stroke-width="1" opacity="0.6235294117647059" d="M 261.5 245 L 266.5 251 L 261.5 245 Z " /><path fill="rgb(0,0,0)" stroke="rgb(0,0,0)" stroke-width="1" opacity="0.6235294117647059" d="M 346.5 245 L 347.5 247 L 346.5 245 Z " /><path fill="rgb(0,0,0)" stroke="rgb(0,0,0)" stroke-width="1" opacity="0.6235294117647059" d="M 351.5 251 L 352.5 253 L 351.5 251 Z " /><path fill="rgb(0,0,0)" stroke="rgb(0,0,0)" stroke-width="1" opacity="0.6235294117647059" d="M 189.5 252 L 188.5 254 L 189.5 252 Z " /><path fill="rgb(0,0,0)" stroke="rgb(0,0,0)" stroke-width="1" opacity="0.6235294117647059" d="M 268.5 253 L 269.5 255 L 268.5 253 Z " /><path fill="rgb(0,0,0)" stroke="rgb(0,0,0)" stroke-width="1" opacity="0.6235294117647059" d="M 357.5 265 L 358 272.5 L 357 272.5 L 357.5 265 Z " /><path fill="rgb(0,0,0)" stroke="rgb(0,0,0)" stroke-width="1" opacity="0.6235294117647059" d="M 127.5 267 L 133 267.5 L 127.5 268 L 127.5 267 Z " /><path fill="rgb(0,0,0)" stroke="rgb(0,0,0)" stroke-width="1" opacity="0.6235294117647059" d="M 337.5 267 L 338 271.5 L 337 271.5 L 337.5 267 Z " /><path fill="rgb(0,0,0)" stroke="rgb(0,0,0)" stroke-width="1" opacity="0.6235294117647059" d="M 114.5 271 L 113.5 273 L 114.5 271 Z " /><path fill="rgb(0,0,0)" stroke="rgb(0,0,0)" stroke-width="1" opacity="0.6235294117647059" d="M 159.5 271 L 160 273.5 L 159 273.5 L 159.5 271 Z " /><path fill="rgb(0,0,0)" stroke="rgb(0,0,0)" stroke-width="1" opacity="0.6235294117647059" d="M 111.5 273 L 105.5 280 L 111.5 273 Z " /><path fill="rgb(0,0,0)" stroke="rgb(0,0,0)" stroke-width="1" opacity="0.6235294117647059" d="M 147.5 273 L 148.5 275 L 147.5 273 Z " /><path fill="rgb(0,0,0)" stroke="rgb(0,0,0)" stroke-width="1" opacity="0.6235294117647059" d="M 335.5 275 L 333.5 278 L 335.5 275 Z " /><path fill="rgb(0,0,0)" stroke="rgb(0,0,0)" stroke-width="1" opacity="0.6235294117647059" d="M 278.5 278 L 279 288.5 L 278 288.5 L 278.5 278 Z " /><path fill="rgb(0,0,0)" stroke="rgb(0,0,0)" stroke-width="1" opacity="0.6235294117647059" d="M 158.5 280 L 159 283.5 L 158 283.5 L 158.5 280 Z " /><path fill="rgb(0,0,0)" stroke="rgb(0,0,0)" stroke-width="1" opacity="0.6235294117647059" d="M 178.5 280 L 179 285.5 L 178 285.5 L 178.5 280 Z " /><path fill="rgb(0,0,0)" stroke="rgb(0,0,0)" stroke-width="1" opacity="0.6235294117647059" d="M 104.5 281 L 103.5 283 L 104.5 281 Z " /><path fill="rgb(0,0,0)" stroke="rgb(0,0,0)" stroke-width="1" opacity="0.6235294117647059" d="M 298 283 L 299.5 283 L 309 292.5 L 299 284.5 L 298.5 289 L 298 283 Z " /><path fill="rgb(0,0,0)" stroke="rgb(0,0,0)" stroke-width="1" opacity="0.6235294117647059" d="M 127.5 287 L 132 287.5 L 127.5 288 L 127.5 287 Z " /><path fill="rgb(0,0,0)" stroke="rgb(0,0,0)" stroke-width="1" opacity="0.6235294117647059" d="M 213.5 287 L 216 287.5 L 213.5 288 L 213.5 287 Z " /><path fill="rgb(0,0,0)" stroke="rgb(0,0,0)" stroke-width="1" opacity="0.6235294117647059" d="M 241.5 287 L 244 287.5 L 241.5 288 L 241.5 287 Z " /><path fill="rgb(0,0,0)" stroke="rgb(0,0,0)" stroke-width="1" opacity="0.6235294117647059" d="M 351.5 287 L 346.5 293 L 351.5 287 Z " /><path fill="rgb(0,0,0)" stroke="rgb(0,0,0)" stroke-width="1" opacity="0.6235294117647059" d="M 123.5 289 L 121.5 292 L 123.5 289 Z " /><path fill="rgb(0,0,0)" stroke="rgb(0,0,0)" stroke-width="1" opacity="0.6235294117647059" d="M 135.5 289 L 136.5 291 L 135.5 289 Z " /><path fill="rgb(0,0,0)" stroke="rgb(0,0,0)" stroke-width="1" opacity="0.6235294117647059" d="M 208.5 289 L 206.5 292 L 208.5 289 Z " /><path fill="rgb(0,0,0)" stroke="rgb(0,0,0)" stroke-width="1" opacity="0.6235294117647059" d="M 220.5 289 L 222.5 292 L 220.5 289 Z " /><path fill="rgb(0,0,0)" stroke="rgb(0,0,0)" stroke-width="1" opacity="0.6235294117647059" d="M 248.5 289 L 251.5 293 L 248.5 289 Z " /><path fill="rgb(0,0,0)" stroke="rgb(0,0,0)" stroke-width="1" opacity="0.6235294117647059" d="M 235.5 290 L 234.5 292 L 235.5 290 Z " /><path fill="rgb(0,0,0)" stroke="rgb(0,0,0)" stroke-width="1" opacity="0.6235294117647059" d="M 179.5 291 L 180 293.5 L 179 293.5 L 179.5 291 Z " /><path fill="rgb(0,0,0)" stroke="rgb(0,0,0)" stroke-width="1" opacity="0.6235294117647059" d="M 227.5 293 L 230 293.5 L 227.5 294 L 227.5 293 Z " /><path fill="rgb(0,0,0)" stroke="rgb(0,0,0)" stroke-width="1" opacity="0.6235294117647059" d="M 297.5 294 L 298 296.5 L 297 296.5 L 297.5 294 Z " /><path fill="rgb(0,0,0)" stroke="rgb(0,0,0)" stroke-width="1" opacity="0.6235294117647059" d="M 252.5 295 L 253 299.5 L 252 299.5 L 252.5 295 Z " /><path fill="rgb(0,0,0)" stroke="rgb(0,0,0)" stroke-width="1" opacity="0.6235294117647059" d="M 119.5 296 L 120 298.5 L 119 298.5 L 119.5 296 Z " /><path fill="rgb(0,0,0)" stroke="rgb(0,0,0)" stroke-width="1" opacity="0.6235294117647059" d="M 204.5 296 L 205 299.5 L 204 299.5 L 204.5 296 Z " /><path fill="rgb(0,0,0)" stroke="rgb(0,0,0)" stroke-width="1" opacity="0.6235294117647059" d="M 251.5 302 L 250.5 304 L 251.5 302 Z " /><path fill="rgb(0,0,0)" stroke="rgb(0,0,0)" stroke-width="1" opacity="0.6235294117647059" d="M 121.5 303 L 208.5 391 L 121.5 303 Z " /><path fill="rgb(0,0,0)" stroke="rgb(0,0,0)" stroke-width="1" opacity="0.6235294117647059" d="M 206.5 303 L 209.5 307 L 206.5 303 Z " /><path fill="rgb(0,0,0)" stroke="rgb(0,0,0)" stroke-width="1" opacity="0.6235294117647059" d="M 87.5 304 L 90 304.5 L 87.5 305 L 87.5 304 Z " /><path fill="rgb(0,0,0)" stroke="rgb(0,0,0)" stroke-width="1" opacity="0.6235294117647059" d="M 247.5 306 L 246.5 308 L 247.5 306 Z " /><path fill="rgb(0,0,0)" stroke="rgb(0,0,0)" stroke-width="1" opacity="0.6235294117647059" d="M 70.5 310 L 69.5 312 L 70.5 310 Z " /><path fill="rgb(0,0,0)" stroke="rgb(0,0,0)" stroke-width="1" opacity="0.6235294117647059" d="M 188.5 313 L 190.5 316 L 188.5 313 Z " /><path fill="rgb(0,0,0)" stroke="rgb(0,0,0)" stroke-width="1" opacity="0.6235294117647059" d="M 227.5 313 L 230 313.5 L 227.5 314 L 227.5 313 Z " /><path fill="rgb(0,0,0)" stroke="rgb(0,0,0)" stroke-width="1" opacity="0.6235294117647059" d="M 64.5 316 L 63.5 318 L 64.5 316 Z " /><path fill="rgb(0,0,0)" stroke="rgb(0,0,0)" stroke-width="1" opacity="0.6235294117647059" d="M 196.5 321 L 198.5 324 L 196.5 321 Z " /><path fill="rgb(0,0,0)" stroke="rgb(0,0,0)" stroke-width="1" opacity="0.6235294117647059" d="M 259.5 322 L 258.5 324 L 259.5 322 Z " /><path fill="rgb(0,0,0)" stroke="rgb(0,0,0)" stroke-width="1" opacity="0.6235294117647059" d="M 87.5 324 L 90 324.5 L 87.5 325 L 87.5 324 Z " /><path fill="rgb(0,0,0)" stroke="rgb(0,0,0)" stroke-width="1" opacity="0.6235294117647059" d="M 284.5 325 L 283.5 327 L 284.5 325 Z " /><path fill="rgb(0,0,0)" stroke="rgb(0,0,0)" stroke-width="1" opacity="0.6235294117647059" d="M 82.5 326 L 79.5 330 L 82.5 326 Z " /><path fill="rgb(0,0,0)" stroke="rgb(0,0,0)" stroke-width="1" opacity="0.6235294117647059" d="M 58.5 329 L 59 332.5 L 58 332.5 L 58.5 329 Z " /><path fill="rgb(0,0,0)" stroke="rgb(0,0,0)" stroke-width="1" opacity="0.6235294117647059" d="M 280.5 330 L 275.5 336 L 280.5 330 Z " /><path fill="rgb(0,0,0)" stroke="rgb(0,0,0)" stroke-width="1" opacity="0.6235294117647059" d="M 218.5 332 L 221 332.5 L 218.5 333 L 218.5 332 Z " /><path fill="rgb(0,0,0)" stroke="rgb(0,0,0)" stroke-width="1" opacity="0.6235294117647059" d="M 225.5 333 L 232 333.5 L 225.5 334 L 225.5 333 Z " /><path fill="rgb(0,0,0)" stroke="rgb(0,0,0)" stroke-width="1" opacity="0.6235294117647059" d="M 58.5 337 L 59 340.5 L 58 340.5 L 58.5 337 Z " /><path fill="rgb(0,0,0)" stroke="rgb(0,0,0)" stroke-width="1" opacity="0.6235294117647059" d="M 271.5 338 L 270.5 340 L 271.5 338 Z " /><path fill="rgb(0,0,0)" stroke="rgb(0,0,0)" stroke-width="1" opacity="0.6235294117647059" d="M 80.5 341 L 81.5 343 L 80.5 341 Z " /><path fill="rgb(0,0,0)" stroke="rgb(0,0,0)" stroke-width="1" opacity="0.6235294117647059" d="M 135.5 347 L 137.5 350 L 135.5 347 Z " /><path fill="rgb(0,0,0)" stroke="rgb(0,0,0)" stroke-width="1" opacity="0.6235294117647059" d="M 140.5 351 L 142.5 354 L 140.5 351 Z " /><path fill="rgb(0,0,0)" stroke="rgb(0,0,0)" stroke-width="1" opacity="0.6235294117647059" d="M 238.5 352 L 241 352.5 L 238.5 353 L 238.5 352 Z " /><path fill="rgb(0,0,0)" stroke="rgb(0,0,0)" stroke-width="1" opacity="0.6235294117647059" d="M 64.5 353 L 68.5 358 L 64.5 353 Z " /><path fill="rgb(0,0,0)" stroke="rgb(0,0,0)" stroke-width="1" opacity="0.6235294117647059" d="M 228.5 353 L 232 353.5 L 228.5 354 L 228.5 353 Z " /><path fill="rgb(0,0,0)" stroke="rgb(0,0,0)" stroke-width="1" opacity="0.6235294117647059" d="M 147.5 357 L 151.5 362 L 147.5 357 Z " /><path fill="rgb(0,0,0)" stroke="rgb(0,0,0)" stroke-width="1" opacity="0.6235294117647059" d="M 120.5 361 L 121.5 363 L 120.5 361 Z " /><path fill="rgb(0,0,0)" stroke="rgb(0,0,0)" stroke-width="1" opacity="0.6235294117647059" d="M 237.5 363 L 238.5 365 L 237.5 363 Z " /><path fill="rgb(0,0,0)" stroke="rgb(0,0,0)" stroke-width="1" opacity="0.6235294117647059" d="M 124.5 364 L 125.5 366 L 124.5 364 Z " /><path fill="rgb(0,0,0)" stroke="rgb(0,0,0)" stroke-width="1" opacity="0.6235294117647059" d="M 128.5 367 L 131.5 371 L 128.5 367 Z " /><path fill="rgb(0,0,0)" stroke="rgb(0,0,0)" stroke-width="1" opacity="0.6235294117647059" d="M 158.5 369 L 160.5 372 L 158.5 369 Z " /><path fill="rgb(0,0,0)" stroke="rgb(0,0,0)" stroke-width="1" opacity="0.6235294117647059" d="M 163.5 375 L 164.5 377 L 163.5 375 Z " /><path fill="rgb(0,0,0)" stroke="rgb(0,0,0)" stroke-width="1" opacity="0.6235294117647059" d="M 221.5 375 L 222.5 377 L 221.5 375 Z " /><path fill="rgb(0,0,0)" stroke="rgb(0,0,0)" stroke-width="1" opacity="0.6235294117647059" d="M 111.5 379 L 112.5 381 L 111.5 379 Z " /><path fill="rgb(0,0,0)" stroke="rgb(0,0,0)" stroke-width="1" opacity="0.6235294117647059" d="M 244.5 379 L 245 384.5 L 244 384.5 L 244.5 379 Z " /><path fill="rgb(0,0,0)" stroke="rgb(0,0,0)" stroke-width="1" opacity="0.6235294117647059" d="M 141.5 380 L 144.5 384 L 141.5 380 Z " /><path fill="rgb(0,0,0)" stroke="rgb(0,0,0)" stroke-width="1" opacity="0.6235294117647059" d="M 224.5 380 L 225 383.5 L 224 383.5 L 224.5 380 Z " /><path fill="rgb(0,0,0)" stroke="rgb(0,0,0)" stroke-width="1" opacity="0.6235294117647059" d="M 114.5 383 L 1.5 497 L 114.5 383 Z " /><path fill="rgb(0,0,0)" stroke="rgb(0,0,0)" stroke-width="1" opacity="0.6235294117647059" d="M 146.5 386 L 147.5 388 L 146.5 386 Z " /><path fill="rgb(0,0,0)" stroke="rgb(0,0,0)" stroke-width="1" opacity="0.6235294117647059" d="M 222.5 388 L 220.5 391 L 222.5 388 Z " /><path fill="rgb(0,0,0)" stroke="rgb(0,0,0)" stroke-width="1" opacity="0.6235294117647059" d="M 149.5 390 L 150.5 392 L 149.5 390 Z " /><path fill="rgb(0,0,0)" stroke="rgb(0,0,0)" stroke-width="1" opacity="0.6235294117647059" d="M 174.5 392 L 175.5 394 L 174.5 392 Z " /><path fill="rgb(0,0,0)" stroke="rgb(0,0,0)" stroke-width="1" opacity="0.6235294117647059" d="M 213.5 392 L 216 392.5 L 213.5 393 L 213.5 392 Z " /><path fill="rgb(0,0,0)" stroke="rgb(0,0,0)" stroke-width="1" opacity="0.6235294117647059" d="M 128.5 397 L 16.5 510 L 128.5 397 Z " /><path fill="rgb(0,0,0)" stroke="rgb(0,0,0)" stroke-width="1" opacity="0.6235294117647059" d="M 240.5 397 L 239.5 399 L 240.5 397 Z " /><path fill="rgb(0,0,0)" stroke="rgb(0,0,0)" stroke-width="1" opacity="0.6235294117647059" d="M 131.5 399 L 132.5 401 L 131.5 399 Z " /><path fill="rgb(0,0,0)" stroke="rgb(0,0,0)" stroke-width="1" opacity="0.6235294117647059" d="M 238.5 400 L 232.5 407 L 238.5 400 Z " /><path fill="rgb(0,0,0)" stroke="rgb(0,0,0)" stroke-width="1" opacity="0.6235294117647059" d="M 213.5 412 L 216 412.5 L 213.5 413 L 213.5 412 Z " /><path fill="rgb(0,0,0)" stroke="rgb(0,0,0)" stroke-width="1" opacity="0.6235294117647059" d="M 187.5 422 L 188 424.5 L 187 424.5 L 187.5 422 Z " /><path fill="rgb(0,0,0)" stroke="rgb(0,0,0)" stroke-width="1" opacity="0.6235294117647059" d="M 185.5 429 L 182.5 433 L 185.5 429 Z " /><path fill="rgb(0,0,0)" stroke="rgb(0,0,0)" stroke-width="1" opacity="0.6235294117647059" d="M 206.5 429 L 207 431.5 L 206 431.5 L 206.5 429 Z " /><path fill="rgb(0,0,0)" stroke="rgb(0,0,0)" stroke-width="1" opacity="0.6235294117647059" d="M 169.5 430 L 170.5 432 L 169.5 430 Z " /><path fill="rgb(0,0,0)" stroke="rgb(0,0,0)" stroke-width="1" opacity="0.6235294117647059" d="M 151.5 439 L 152.5 441 L 151.5 439 Z " /><path fill="rgb(0,0,0)" stroke="rgb(0,0,0)" stroke-width="1" opacity="0.6235294117647059" d="M 201.5 441 L 200.5 443 L 201.5 441 Z " /><path fill="rgb(0,0,0)" stroke="rgb(0,0,0)" stroke-width="1" opacity="0.6235294117647059" d="M 154.5 443 L 158.5 448 L 154.5 443 Z " /><path fill="rgb(0,0,0)" stroke="rgb(0,0,0)" stroke-width="1" opacity="0.6235294117647059" d="M 195.5 447 L 194.5 449 L 195.5 447 Z " /><path fill="rgb(0,0,0)" stroke="rgb(0,0,0)" stroke-width="1" opacity="0.6235294117647059" d="M 171.5 453 L 175 453.5 L 171.5 454 L 171.5 453 Z " /><path fill="rgb(0,0,0)" stroke="rgb(0,0,0)" stroke-width="1" opacity="0.6235294117647059" d="M 179.5 453 L 183 453.5 L 179.5 454 L 179.5 453 Z " /><path fill="rgb(0,0,0)" stroke="rgb(0,0,0)" stroke-width="1" opacity="0.6235294117647059" d="M 1.5 507 L 4.5 511 L 1.5 507 Z " /></svg>