<svg id="Capa_1" enable-background="new 0 0 548.518 548.518" height="512" viewBox="0 0 548.518 548.518" width="512" xmlns="http://www.w3.org/2000/svg"><g><g id="Icon_00000134965322197169199290000011299374025957229971_" clip-rule="evenodd" fill-rule="evenodd"><circle cx="321.946" cy="255.268" r="19.125"/><path d="m343.213 496.472c8.772-5.865 20.655-3.493 26.52 5.304 5.84 8.772 3.468 20.655-5.304 26.52l-25.5 17.008c-6.426 4.284-14.79 4.284-21.216 0l-65.892-43.936-65.892 43.936c-7.599 5.049-17.697 4.055-24.148-2.397l-41.234-41.259-89.684 44.829c-6.962 3.493-15.351 2.397-21.19-2.754s-7.981-13.311-5.406-20.68l102-290.7c.153-.434.331-.893.535-1.326 26.571-60.766 87.235-103.249 157.768-103.249 94.988 0 172.125 77.112 172.125 172.125 0 1.249-.127 2.499-.382 3.749l-12.75 63.75c-2.065 10.353-12.138 17.059-22.491 14.994s-17.085-12.163-15.02-22.517c0 0 12.368-61.812 12.368-61.888-1.02-73.007-60.588-131.963-133.85-131.963-54.621 0-101.643 32.768-122.451 79.713l-86.113 245.437 59.746-29.886c7.37-3.698 16.269-2.244 22.083 3.57l39.907 39.908 63.47-42.279c6.426-4.284 14.79-4.284 21.216 0l65.892 43.911z"/><path d="m123.403 259.373c8.287 6.528 9.715 18.564 3.188 26.852-6.553 8.287-18.59 9.715-26.877 3.162 0 0-43.885-34.782-67.626-73.517-12.036-19.66-18.692-40.494-15.938-59.058 5.661-38.071 25.118-53.856 52.607-64.26 14.356-5.457 31.416-9.129 49.827-14.918 19.609-6.171 22.236-18.182 27.438-28.713 6.503-13.209 14.739-25.551 34.247-34.247 23.231-10.378 43.478-6.502 62.297.485 11.883 4.386 22.593 11.22 33.711 10.633 8.517-.485 12.113-4.641 16.957-8.288 9.792-7.37 21.42-15.147 46.257-17.187 24.072-1.964 35.47 5.406 44.421 14.79 3.085 3.264 5.814 6.961 8.695 10.787 3.749 4.947 8.007 10.429 17.824 13.464 13.821 4.233 27.922 5.355 40.851 8.287 26.01 5.916 48.475 17.085 60.945 55.004 8.262 25.118.536 53.32-17.391 77.035-25.143 33.227-69.717 56.228-106.105 49.776-10.404-1.836-17.34-11.781-15.504-22.185 1.862-10.378 11.781-17.314 22.185-15.479 19.814 3.519 42.56-8.135 59.237-24.301 15.682-15.147 27.158-34.91 21.241-52.887-6.732-20.527-18.997-26.469-33.074-29.657-13.821-3.136-28.866-4.513-43.63-9.052-19.329-5.941-28.688-15.963-36.185-25.755-3.086-4.029-4.87-8.542-9.461-10.761-2.576-1.224-6.018-1.351-10.914-.943-17.825 1.453-24.174 8.058-30.983 13.107-8.619 6.4-17.569 11.577-33.277 12.418-13.515.74-27.055-4.131-41.081-9.792-12.444-5.049-25.628-11.628-41.412-4.59-12.444 5.559-14.867 14.892-18.947 23.383-7.752 16.09-17.111 31.799-46.869 41.157-17.621 5.534-33.992 8.976-47.736 14.178-14.688 5.559-25.321 13.795-28.331 34.144-2.244 15.096 8.415 31.722 20.094 46.997 21.116 27.67 49.319 49.931 49.319 49.931z"/><path d="m506.846 331.768c-12.087-22.134-36.72-52.709-88.663-51.026-10.557.357-19.38-7.931-19.737-18.488-.332-10.557 7.956-19.405 18.488-19.737 74.23-2.423 108.452 42.33 124.746 73.211.255.535.51 1.046.74 1.581 4.87 11.756 3.57 25.194-3.493 35.777-7.089 10.582-18.972 16.932-31.697 16.932h-76.908c-10.557 0-19.125-8.568-19.125-19.125s8.568-19.125 19.125-19.125z"/><path d="m420.733 340.285s54.213 83.003 54.213 138.108c0 38.684-31.416 70.125-70.125 70.125s-70.125-31.441-70.125-70.125c0-55.105 54.213-138.108 54.213-138.108 3.544-5.329 9.511-8.517 15.912-8.517 6.4 0 12.367 3.187 15.912 8.517zm-15.912 47.226c-13.898 24.659-31.875 62.118-31.875 90.882 0 17.569 14.28 31.875 31.875 31.875s31.875-14.306 31.875-31.875c0-28.79-17.978-66.224-31.875-90.882z"/></g></g></svg>