<svg id="Layer_1" viewBox="0 0 512 512" xmlns="http://www.w3.org/2000/svg" data-name="Layer 1"><path fill="currentColor" d="m459.483 102.373h-94.393c13.673-11.412 21.663-26.191 22.354-42.524.869-20.534-10.399-39.139-28.707-47.397-11.155-5.033-41.09-12.903-78.05 22.616-12.706 12.206-23.736 26.874-32.286 42.589-8.542-15.712-19.57-30.378-32.279-42.588-36.963-35.52-66.898-27.649-78.052-22.618-18.308 8.259-29.576 26.863-28.707 47.397.691 16.334 8.681 31.114 22.352 42.524h-79.198c-21.307 0-38.641 17.334-38.641 38.641v74.295c0 15.99 9.763 29.742 23.641 35.61v204.284c0 26.902 21.874 48.789 48.76 48.789h339.446c26.887 0 48.76-21.886 48.76-48.789v-204.284c13.878-5.868 23.641-19.62 23.641-35.61v-74.295c0-21.307-17.334-38.641-38.641-38.641zm8.641 38.641v74.295c0 4.765-3.876 8.641-8.641 8.641h-196.094v-87.253c7.964 4.96 14.946 13.978 23.788 25.965 7.675 10.406 15.611 21.166 26.064 29.47 2.759 2.192 6.051 3.256 9.321 3.256 4.417 0 8.793-1.942 11.754-5.67 5.153-6.486 4.072-15.922-2.414-21.075-7.334-5.827-13.77-14.551-20.582-23.788-2.981-4.041-6.119-8.293-9.516-12.481h157.68c4.765 0 8.641 3.876 8.641 8.641zm-166.652-84.314c12.663-12.168 25.508-18.717 36.065-18.717 3.185 0 6.164.597 8.863 1.815 7.073 3.19 11.418 10.563 11.07 18.783-.55 13.006-12.209 24.769-31.197 31.47-14.808 5.235-34.21 9.009-56.027 10.98 7.514-16.375 18.481-32.088 31.226-44.331zm-151.066-16.902c2.701-1.218 5.677-1.815 8.863-1.815 10.557 0 23.404 6.55 36.067 18.719 12.75 12.248 23.713 27.961 31.214 44.331-21.826-1.971-41.226-5.746-56.025-10.984-18.979-6.698-30.639-18.461-31.189-31.467-.348-8.22 3.998-15.593 11.07-18.783zm-106.53 101.216c0-4.765 3.876-8.641 8.641-8.641h142.483c-3.394 4.186-6.53 8.434-9.508 12.473-6.814 9.24-13.25 17.967-20.587 23.796-6.486 5.153-7.567 14.589-2.414 21.075 2.961 3.728 7.336 5.67 11.754 5.67 3.269 0 6.562-1.064 9.321-3.256 10.456-8.307 18.394-19.07 26.071-29.48 8.83-11.974 15.804-20.984 23.752-25.945v87.243h-180.872c-4.765 0-8.641-3.876-8.641-8.641v-74.295zm23.641 314.189v-201.253h165.872v220.042h-147.112c-10.344 0-18.76-8.429-18.76-18.789zm358.206 18.789h-162.334v-220.042h181.094v201.253c0 10.36-8.416 18.789-18.76 18.789z"/></svg>