<svg id="Layer_1" height="512" viewBox="50 180 900 670" width="512" xmlns="http://www.w3.org/2000/svg" data-name="Layer 1" preserveAspectRatio="xMidYMid meet"><path d="m499.55 916c-51.18 0-99.53-11.8-136.16-33.23-39.32-23-61-54.52-61-88.75 0-25.27 12-49.37 34.58-69.69 36.49-32.74 97.26-52.33 162.58-52.33 66.2 0 127.42 20 163.76 53.42 21.82 20.07 33.36 43.77 33.36 68.56 0 34.23-21.66 65.75-61 88.75-36.59 21.47-84.94 33.27-136.12 33.27zm0-212c-57.65 0-110.42 16.49-141.17 44.1-10.93 9.82-24 25.75-24 45.88 0 48.77 75.62 90 165.13 90s165.12-41.21 165.12-90c0-19.7-12.52-35.35-23-45-30.12-27.71-84.57-44.98-142.08-44.98z" stroke="currentColor" stroke-width="6" stroke-linejoin="round" fill="currentColor"/><path d="m652.48 753.23a16 16 0 0 1 -10.84-4.23c-30.13-27.74-84.58-45-142.09-45s-110.42 16.49-141.17 44.1a16 16 0 0 1 -21.27.1 247.53 247.53 0 0 1 -83.8-185.56v-55.25c-45.14-1.21-87.28-7.78-120-18.8-53.59-18-64.84-42.06-64.84-59s11.25-41 64.84-59c33.43-11.27 76.71-17.88 123-18.88a108.33 108.33 0 0 1 105.26-82.85h278.15a108.33 108.33 0 0 1 105.28 82.83c45.81 1.1 88.62 7.7 121.74 18.86 53.54 18.05 64.78 42.05 64.78 59s-11.21 40.91-64.61 58.95c-32.41 11-74.15 17.54-118.91 18.85v55.32a245.72 245.72 0 0 1 -72.45 174.9c-4 4-8.24 8-12.55 11.71a15.93 15.93 0 0 1 -10.52 3.95zm-152.93-81.23c59.68 0 115.32 16.23 152.32 43.94l1-1a213.92 213.92 0 0 0 63.13-152.26v-71.08a16 16 0 0 1 16-16c47.36-.06 91.65-6.23 124.69-17.4 33.89-11.46 42.85-23.74 42.85-28.64s-9-17.22-43-28.69c-33.15-11.17-77.55-17.33-125-17.34a16 16 0 0 1 -15.91-14.36 76 76 0 0 0 -75.86-68.36h-278.2a76 76 0 0 0 -75.86 68.36 16 16 0 0 1 -15.91 14.36h-1.14c-47.5 0-91.94 6.15-125.12 17.33-34 11.47-43 23.79-43 28.7s9 17.24 43.05 28.71c33.18 11.17 77.62 17.33 125.12 17.33h.65a16 16 0 0 1 16 16v71.08a215.48 215.48 0 0 0 63.12 152.32c37.01-27.07 92.19-43 151.07-43z" stroke="currentColor" stroke-width="6" stroke-linejoin="round" fill="currentColor"/><path d="m341.22 453.32a16 16 0 0 1 -12-26.64c.92-1 23-25.37 55.13-26.3 20.42-.6 39.72 8 57.31 25.62a16 16 0 0 1 -22.63 22.63c-11.12-11.12-22.49-16.57-33.75-16.26-18.25.53-32 15.44-32.16 15.59a16 16 0 0 1 -11.9 5.36z" stroke="currentColor" stroke-width="6" stroke-linejoin="round" fill="currentColor"/><path d="m568.68 453.32a16 16 0 0 1 -11.94-26.64c.92-1 22.94-25.37 55.12-26.3 20.42-.59 39.72 8 57.31 25.62a16 16 0 0 1 -22.62 22.63c-11.12-11.12-22.49-16.57-33.76-16.26-18.25.53-32 15.44-32.16 15.59a15.94 15.94 0 0 1 -11.95 5.36z" stroke="currentColor" stroke-width="6" stroke-linejoin="round" fill="currentColor"/><path d="m563.77 826.29a16 16 0 0 1 -16-15.07c-.12-2.13-.82-21.24 12.62-35.48 6-6.38 17.14-14 35.89-14a16 16 0 1 1 0 32c-5.9 0-10.15 1.33-12.62 4-4 4.19-4 11.58-4 11.66a16 16 0 0 1 -15 16.89z" stroke="currentColor" stroke-width="6" stroke-linejoin="round" fill="currentColor"/><path d="m451.27 811.22-31.94-1.85v.2c.06-2.11-.54-8.37-4-12-2.48-2.56-6.7-3.86-12.53-3.86a16 16 0 0 1 0-32c18.76 0 29.87 7.61 35.9 14 13.39 14.29 12.7 33.38 12.57 35.51z" stroke="currentColor" stroke-width="6" stroke-linejoin="round" fill="currentColor"/><path d="m731.06 380a16 16 0 0 1 -10.24-28.3c61.51-51.2 75.58-126.12 40.61-205.7-17.82 66.28-49.31 117.64-93.91 153a16 16 0 0 1 -19.9-25c47.51-37.7 78.33-97.14 91.61-176.65a16 16 0 0 1 29.35-5.84c33 52.83 47.61 107.45 42.2 158-5.3 49.53-29.33 93.37-69.5 126.77a15.92 15.92 0 0 1 -10.22 3.72z" stroke="currentColor" stroke-width="6" stroke-linejoin="round" fill="currentColor"/><path d="m270.59 377.67a16 16 0 0 1 -10.25-3.67c-40.14-33.58-64.34-77-70.12-125.56-5.92-50.07 8.33-104.33 41.2-156.92a16 16 0 0 1 29.35 5.84c13.34 79.88 43.94 139.46 90.93 177.11a16 16 0 1 1 -20 25c-27.22-21.8-49.84-50.29-67.24-84.66a357.81 357.81 0 0 1 -25.84-68.59c-33.72 78-19.06 152 42.24 203.19a16 16 0 0 1 -10.27 28.28z" stroke="currentColor" stroke-width="6" stroke-linejoin="round" fill="currentColor"/></svg>
