<svg id="Layer_1" enable-background="new 0 0 511.955 511.955" height="512" viewBox="0 0 511.955 511.955" width="512" xmlns="http://www.w3.org/2000/svg"><g><g><path stroke="currentColor" stroke-width="6" stroke-linejoin="round" fill="currentColor" d="m510.863 58.296c2.387-8.477.821-16.868-4.332-23.073-5.526-6.652-14.458-10.049-23.895-9.083-63.382 6.481-106.11 30.592-130.324 73.62-27.968-6.874-50.455-12.265-96.335-12.265-45.881 0-68.367 5.391-96.334 12.265-24.215-43.029-66.943-67.139-130.324-73.621-9.44-.966-18.369 2.43-23.895 9.083-5.154 6.204-6.719 14.595-4.333 23.071.016.063.033.125.05.188.016.056.028.113.045.169 4.686 15.908 7.582 33.876 10.382 51.252 4.531 28.113 9.216 57.184 21.701 81.017 13.238 25.271 33.5 41.255 61.756 48.655-9.63 36.732-14.745 61.564-14.442 82.883.361 25.38 8.373 44.946 26.791 65.424 5.935 6.6 11.692 13.883 17.787 21.593 14.158 17.913 28.799 36.435 49.081 51.129 23.566 17.074 50.302 25.374 81.736 25.374s58.17-8.3 81.737-25.374c20.282-14.694 34.922-33.216 49.081-51.129 6.095-7.71 11.851-14.994 17.786-21.593 18.418-20.478 26.43-40.044 26.791-65.424.303-21.318-4.811-46.149-14.441-82.879 28.307-7.413 48.587-23.443 61.826-48.795 12.432-23.807 17.108-52.821 21.63-80.88 2.801-17.377 5.696-35.345 10.382-51.253.017-.057.029-.115.046-.172.016-.06.032-.121.047-.182zm-121.153 316.212c-6.36 7.072-12.309 14.598-18.606 22.565-26.776 33.875-54.464 68.905-115.127 68.905-60.662 0-88.35-35.029-115.126-68.904-6.298-7.968-12.247-15.493-18.607-22.565-28.801-32.024-26.998-58.59-5.217-139.878 7.193-26.844 9.998-51.307 8.336-72.709-.428-5.506-5.237-9.616-10.744-9.196-5.506.428-9.624 5.238-9.196 10.744 1.298 16.714-.519 35.764-5.399 56.741-22.748-5.969-38.455-18.368-49.038-38.57-10.974-20.95-15.199-47.165-19.672-74.918-1.889-11.722-3.832-23.699-6.343-35.362 13.946 5.089 29.306 11.673 43.054 21.947 1.796 1.343 3.896 1.99 5.979 1.99 3.046 0 6.055-1.387 8.018-4.014 3.306-4.424 2.4-10.69-2.024-13.997-19.949-14.908-42.58-22.901-59.558-28.716.107-.201.226-.393.371-.567 1.223-1.472 3.766-2.244 6.476-1.965 59.401 6.074 98.061 28.879 118.187 69.716 2.071 4.204 6.785 6.405 11.338 5.294 2.241-.546 4.427-1.083 6.572-1.611 28.199-6.933 48.574-11.941 92.596-11.941s64.397 5.009 92.596 11.941c2.145.527 4.331 1.065 6.572 1.611 4.551 1.108 9.266-1.091 11.338-5.295 20.126-40.837 58.785-63.642 118.187-69.716 2.709-.28 5.252.494 6.475 1.965.145.174.264.366.371.566-44.652 15.291-133.698 47.57-96.588 186.062 21.778 81.287 23.581 107.853-5.221 139.877zm71.319-192.982c-10.583 20.266-26.316 32.677-49.093 38.659-24.123-103.544 32.249-133.23 75.05-148.831-2.512 11.665-4.454 23.643-6.344 35.367-4.465 27.705-8.683 53.872-19.613 74.805z"/><path stroke="currentColor" stroke-width="6" stroke-linejoin="round" fill="currentColor" d="m255.977 301.919c-41.112 0-73 43.772-73 81.429 0 18.947 7.853 34.472 22.708 44.897 12.747 8.945 30.138 13.673 50.292 13.673s37.545-4.728 50.292-13.673c14.856-10.425 22.708-25.95 22.708-44.897.001-37.656-31.887-81.429-73-81.429zm0 120c-12.434 0-53-2.782-53-38.571 0-13.982 6.035-29.589 16.143-41.748 10.55-12.691 23.64-19.681 36.858-19.681s26.308 6.989 36.858 19.681c10.108 12.159 16.143 27.766 16.143 41.748-.001 35.789-40.568 38.571-53.002 38.571z"/><path stroke="currentColor" stroke-width="6" stroke-linejoin="round" fill="currentColor" d="m238.479 364.414c-5.334-1.43-10.817 1.738-12.247 7.072l-3.105 11.591c-1.429 5.334 1.737 10.818 7.072 12.247.867.232 1.737.343 2.594.343 4.416 0 8.457-2.947 9.653-7.415l3.105-11.591c1.429-5.335-1.737-10.818-7.072-12.247z"/><path stroke="currentColor" stroke-width="6" stroke-linejoin="round" fill="currentColor" d="m285.721 371.485c-1.429-5.334-6.912-8.501-12.248-7.071-5.334 1.429-8.5 6.913-7.071 12.248l3.106 11.591c1.197 4.468 5.237 7.414 9.653 7.414.856 0 1.728-.111 2.595-.343 5.334-1.429 8.5-6.913 7.071-12.248z"/><path stroke="currentColor" stroke-width="6" stroke-linejoin="round" fill="currentColor" d="m169.815 275.992h-.007c-5.523 0-9.997 4.477-9.997 10s4.481 10 10.004 10 10-4.477 10-10-4.477-10-10-10z"/><path stroke="currentColor" stroke-width="6" stroke-linejoin="round" fill="currentColor" d="m342.139 275.993c-5.523 0-10 4.477-10 10s4.477 10 10 10h.007c5.523 0 9.997-4.477 9.997-10s-4.481-10-10.004-10z"/><path stroke="currentColor" stroke-width="6" stroke-linejoin="round" fill="currentColor" d="m103.502 109.285h-.007c-5.523 0-9.996 4.477-9.996 10s4.48 10 10.003 10 10-4.477 10-10-4.477-10-10-10z"/></g></g></svg>