<svg id="Line_Expand" height="512" viewBox="0 0 64 64" width="512" xmlns="http://www.w3.org/2000/svg" data-name="Line Expand"><path stroke="currentColor" stroke-width="1.5" stroke-linejoin="round" fill="currentColor" d="m57.92 12.86a15.79 15.79 0 0 0 -9.17-4.54 12.74 12.74 0 0 1 -7.61-3.76l-.14-.19c-5-4.92-11.5-5.51-15.6-1.37a35 35 0 0 0 -9.5 32.09l.11.49a4.61 4.61 0 0 1 -1.25 4.22 8.94 8.94 0 0 0 -2.5 7.73l-2.77 2.73a5.2 5.2 0 1 0 -4 9.38 5.15 5.15 0 0 0 1.39 2.57 5.2 5.2 0 0 0 8-6.58l1.79-1.78a9 9 0 0 0 5.83 1.09 58.46 58.46 0 0 0 32.5-16.53l2.92-2.93a16 16 0 0 0 0-22.62zm-45.11 42a1 1 0 0 0 0 1.41 3.2 3.2 0 1 1 -5.44 2.43 1 1 0 0 0 -1-.94 3.2 3.2 0 1 1 2.43-5.45 1 1 0 0 0 1.42 0l2.63-2.63a8.76 8.76 0 0 0 1.86 2.74 2.85 2.85 0 0 0 .26.23zm9.36-1.86a7 7 0 0 1 -6-11.79 6.57 6.57 0 0 0 1.79-6l-.1-.5a32.89 32.89 0 0 1 4.82-25.29 13 13 0 0 0 4.13 9.09l.19.19a12.74 12.74 0 0 1 3.76 7.61 16 16 0 0 0 20 13.29 56.42 56.42 0 0 1 -28.59 13.4zm34.34-18.93a14 14 0 0 1 -19.8 0 13.77 13.77 0 0 1 -4-8 14.8 14.8 0 0 0 -4.36-8.78l-.16-.16c-4.1-4.1-4.7-9.45-1.42-12.73s8.63-2.68 12.73 1.41l.2.19a14.73 14.73 0 0 0 8.78 4.35 13.84 13.84 0 0 1 8 4 14 14 0 0 1 .03 19.72z"/><path stroke="currentColor" stroke-width="1.5" stroke-linejoin="round" fill="currentColor" d="m55.1 15.68a11.86 11.86 0 0 0 -6.88-3.39 16.81 16.81 0 0 1 -10-5l-.13-.13c-3.33-3.33-7.41-3.91-9.9-1.42s-1.92 6.57 1.42 9.91l.14.14a16.81 16.81 0 0 1 4.94 10 11.87 11.87 0 0 0 3.4 6.88 12 12 0 0 0 17-17zm-1.42 15.56a10 10 0 0 1 -14.14 0 9.87 9.87 0 0 1 -2.83-5.72 18.69 18.69 0 0 0 -5.53-11.12l-.13-.13c-2.49-2.5-3.05-5.41-1.41-7.07s4.57-1.08 7.07 1.41l.12.12a18.7 18.7 0 0 0 11.17 5.54 9.87 9.87 0 0 1 5.72 2.83 10 10 0 0 1 -.04 14.14z"/><path stroke="currentColor" stroke-width="1.5" stroke-linejoin="round" fill="currentColor" d="m43.08 20.63a5 5 0 1 0 7.07 0 5 5 0 0 0 -7.07 0zm5.65 5.66a3 3 0 1 1 0-4.24 3 3 0 0 1 0 4.24z"/><path stroke="currentColor" stroke-width="1.5" stroke-linejoin="round" fill="currentColor" d="m33.18 10.73c-1.21 1.21-.61 3.65 1.41 5.66s4.41 2.61 5.66 1.42.6-3.65-1.42-5.66-4.44-2.62-5.65-1.42zm5.65 5.66c-.17.18-1.46 0-2.83-1.41s-1.59-2.65-1.41-2.83 1.46 0 2.83 1.41 1.58 2.66 1.41 2.83z"/></svg>